<svg width="46" height="46" viewBox="0 0 46 46" fill="none" xmlns="http://www.w3.org/2000/svg">
<g clip-path="url(#clip0_2797_2597)">
<path d="M5.75 23C5.75 25.2653 6.19618 27.5084 7.06308 29.6013C7.92997 31.6942 9.2006 33.5958 10.8024 35.1976C12.4042 36.7994 14.3058 38.07 16.3987 38.9369C18.4916 39.8038 20.7347 40.25 23 40.25C25.2653 40.25 27.5084 39.8038 29.6013 38.9369C31.6942 38.07 33.5958 36.7994 35.1976 35.1976C36.7994 33.5958 38.07 31.6942 38.9369 29.6013C39.8038 27.5084 40.25 25.2653 40.25 23C40.25 20.7347 39.8038 18.4916 38.9369 16.3987C38.07 14.3058 36.7994 12.4042 35.1976 10.8024C33.5958 9.2006 31.6942 7.92997 29.6013 7.06308C27.5084 6.19618 25.2653 5.75 23 5.75C20.7347 5.75 18.4916 6.19618 16.3987 7.06308C14.3058 7.92997 12.4042 9.2006 10.8024 10.8024C9.2006 12.4042 7.92997 14.3058 7.06308 16.3987C6.19618 18.4916 5.75 20.7347 5.75 23Z" stroke="#004079" stroke-linecap="round" stroke-linejoin="round"/>
<path d="M22.998 17.5792V28.4215M28.4192 23.0003H17.5769" stroke="#004079" stroke-linecap="round" stroke-linejoin="round"/>
</g>
<defs>
<clipPath id="clip0_2797_2597">
<rect width="46" height="46" fill="white"/>
</clipPath>
</defs>
</svg>
