<svg width="51" height="52" viewBox="0 0 51 52" fill="none" xmlns="http://www.w3.org/2000/svg">
<path d="M12.7982 39.0834C14.4697 40.7548 16.454 42.0807 18.6379 42.9853C20.8217 43.8899 23.1624 44.3555 25.5262 44.3555C27.8899 44.3555 30.2306 43.8899 32.4145 42.9853C34.5983 42.0807 36.5826 40.7548 38.2541 39.0834C39.9255 37.4119 41.2514 35.4276 42.156 33.2438C43.0606 31.0599 43.5262 28.7193 43.5262 26.3555C43.5262 23.9917 43.0606 21.651 42.156 19.4672C41.2514 17.2833 39.9255 15.299 38.2541 13.6275C36.5826 11.9561 34.5983 10.6302 32.4145 9.72564C30.2306 8.82105 27.8899 8.35547 25.5262 8.35547C23.1624 8.35547 20.8217 8.82105 18.6379 9.72564C16.454 10.6302 14.4697 11.9561 12.7982 13.6275C11.1268 15.299 9.80091 17.2833 8.89633 19.4672C7.99174 21.651 7.52616 23.9917 7.52616 26.3555C7.52616 28.7193 7.99174 31.0599 8.89632 33.2438C9.80091 35.4276 11.1268 37.4119 12.7982 39.0834Z" stroke="#004079" stroke-width="2" stroke-linecap="round" stroke-linejoin="round"/>
<path d="M21.2852 30.5981L29.2852 22.5981M21.2852 22.5981L29.2852 30.5981" stroke="#004079" stroke-width="2" stroke-linecap="round" stroke-linejoin="round"/>
</svg>
