<svg width="24" height="24" viewBox="0 0 24 24" fill="none" xmlns="http://www.w3.org/2000/svg">
<g clip-path="url(#clip0_552_223)">
<path d="M10.0007 3.2C8.4364 3.56264 6.99761 4.3372 5.83358 5.44333C4.66954 6.54947 3.82264 7.9469 3.38072 9.49067C2.93881 11.0344 2.91798 12.6683 3.32039 14.2229C3.72279 15.7774 4.53378 17.196 5.66924 18.3315C6.8047 19.4669 8.22327 20.2779 9.77781 20.6803C11.3323 21.0827 12.9662 21.0619 14.51 20.62C16.0538 20.1781 17.4512 19.3312 18.5574 18.1671C19.6635 17.0031 20.4381 15.5643 20.8007 14C20.8007 13.7348 20.6953 13.4804 20.5078 13.2929C20.3203 13.1054 20.0659 13 19.8007 13H13.0007C12.4703 13 11.9616 12.7893 11.5865 12.4142C11.2114 12.0391 11.0007 11.5304 11.0007 11V4C10.9883 3.88152 10.9525 3.76669 10.8953 3.66217C10.8382 3.55764 10.7608 3.4655 10.6678 3.39108C10.5748 3.31666 10.4679 3.26145 10.3534 3.22865C10.2389 3.19585 10.119 3.18611 10.0007 3.2Z" stroke="#00B8D0" stroke-width="2" stroke-linecap="round" stroke-linejoin="round"/>
<path d="M15 3.5C16.2697 3.94708 17.423 4.6733 18.3748 5.62516C19.3267 6.57702 20.0529 7.73028 20.5 9H16C15.7348 9 15.4804 8.89464 15.2929 8.70711C15.1054 8.51957 15 8.26522 15 8V3.5Z" stroke="#00B8D0" stroke-width="2" stroke-linecap="round" stroke-linejoin="round"/>
</g>
<defs>
<clipPath id="clip0_552_223">
<rect width="24" height="24" fill="white"/>
</clipPath>
</defs>
</svg>
