<svg width="24" height="24" viewBox="0 0 24 24" fill="none" xmlns="http://www.w3.org/2000/svg">
<g clip-path="url(#clip0_2797_2513)">
<path d="M14 6L21 13L17 17" stroke="white" stroke-width="2" stroke-linecap="round" stroke-linejoin="round"/>
<path d="M5.8286 18.172C6.09122 18.4347 6.40301 18.6431 6.74618 18.7853C7.08934 18.9274 7.45715 19.0006 7.8286 19.0006C8.20005 19.0006 8.56787 18.9274 8.91103 18.7853C9.25419 18.6431 9.56599 18.4347 9.8286 18.172L20.4146 7.58601C20.6004 7.40028 20.7478 7.17977 20.8484 6.93707C20.9489 6.69436 21.0007 6.43422 21.0007 6.17151C21.0007 5.9088 20.9489 5.64866 20.8484 5.40596C20.7478 5.16325 20.6004 4.94274 20.4146 4.75701L19.2436 3.58601C19.0579 3.40021 18.8374 3.25282 18.5947 3.15226C18.352 3.0517 18.0918 2.99994 17.8291 2.99994C17.5664 2.99994 17.3063 3.0517 17.0636 3.15226C16.8208 3.25282 16.6003 3.40021 16.4146 3.58601L5.8286 14.172C5.56591 14.4346 5.35752 14.7464 5.21535 15.0896C5.07318 15.4328 5 15.8006 5 16.172C5 16.5435 5.07318 16.9113 5.21535 17.2544C5.35752 17.5976 5.56591 17.9094 5.8286 18.172Z" stroke="white" stroke-width="2" stroke-linecap="round" stroke-linejoin="round"/>
<path d="M4 20L5.768 18.232" stroke="white" stroke-width="2" stroke-linecap="round" stroke-linejoin="round"/>
</g>
<defs>
<clipPath id="clip0_2797_2513">
<rect width="24" height="24" fill="white"/>
</clipPath>
</defs>
</svg>
