<svg width="40" height="40" viewBox="0 0 40 40" fill="none" xmlns="http://www.w3.org/2000/svg">
<circle cx="20" cy="20" r="20" fill="#00B8D0"/>
<path d="M17.5 11.25C17.5 10.587 17.7634 9.95107 18.2322 9.48223C18.7011 9.01339 19.337 8.75 20 8.75C20.663 8.75 21.2989 9.01339 21.7678 9.48223C22.2366 9.95107 22.5 10.587 22.5 11.25C23.9355 11.9288 25.1593 12.9854 26.0401 14.3066C26.9209 15.6278 27.4255 17.1638 27.5 18.75V22.5C27.5941 23.2771 27.8693 24.0213 28.3035 24.6727C28.7377 25.324 29.3188 25.8643 30 26.25H10C10.6812 25.8643 11.2623 25.324 11.6965 24.6727C12.1307 24.0213 12.4059 23.2771 12.5 22.5V18.75C12.5745 17.1638 13.0791 15.6278 13.9599 14.3066C14.8407 12.9854 16.0645 11.9288 17.5 11.25Z" stroke="white" stroke-width="2" stroke-linecap="round" stroke-linejoin="round"/>
<path d="M16.25 26.25V27.5C16.25 28.4946 16.6451 29.4484 17.3483 30.1517C18.0516 30.8549 19.0054 31.25 20 31.25C20.9946 31.25 21.9484 30.8549 22.6517 30.1517C23.3549 29.4484 23.75 28.4946 23.75 27.5V26.25" stroke="white" stroke-width="2" stroke-linecap="round" stroke-linejoin="round"/>
</svg>
